<?xml version="1.0" standalone="no"?>
<!DOCTYPE svg PUBLIC "-//W3C//DTD SVG 20010904//EN"
 "http://www.w3.org/TR/2001/REC-SVG-20010904/DTD/svg10.dtd">
<svg version="1.0" xmlns="http://www.w3.org/2000/svg"
 width="303.000000pt" height="227.000000pt" viewBox="0 0 303.000000 227.000000"
 preserveAspectRatio="xMidYMid meet">

<g transform="translate(0.000000,227.000000) scale(0.100000,-0.100000)"
fill="#000000" stroke="none">
<path d="M847 2014 c-16 -16 -7 -44 14 -44 15 0 20 5 17 22 -3 22 -19 33 -31
22z"/>
<path d="M927 2014 c-16 -16 -7 -44 14 -44 15 0 20 5 17 22 -3 22 -19 33 -31
22z"/>
<path d="M600 1865 c0 -138 1 -145 20 -145 18 0 20 7 20 55 0 55 0 55 30 55
74 0 121 60 100 125 -13 40 -45 55 -115 55 l-55 0 0 -145z m117 94 c18 -15 17
-54 -3 -73 -8 -9 -29 -16 -45 -16 -29 0 -29 1 -29 56 l0 57 32 -7 c17 -3 37
-11 45 -17z"/>
<path d="M1807 1877 c-26 -72 -47 -138 -47 -144 0 -7 8 -13 18 -13 13 0 24 13
35 40 15 39 16 40 67 40 51 0 52 -1 67 -40 13 -32 21 -40 41 -40 15 0 22 5 20
13 -100 279 -100 277 -127 277 -24 0 -29 -8 -74 -133z m96 20 c9 -30 17 -57
17 -60 0 -4 -18 -7 -40 -7 -22 0 -40 3 -40 7 0 16 34 113 40 113 3 0 14 -24
23 -53z"/>
<path d="M2050 1865 l0 -145 60 0 c64 0 113 18 124 45 11 31 6 62 -15 89 -16
20 -19 30 -10 39 18 18 13 75 -9 97 -16 16 -33 20 -85 20 l-65 0 0 -145z m117
94 c30 -26 0 -69 -48 -69 -28 0 -29 2 -29 46 l0 47 32 -7 c17 -3 37 -11 45
-17z m11 -121 c7 -7 12 -21 12 -33 0 -31 -19 -45 -62 -45 l-38 0 0 45 0 45 38
0 c21 0 43 -5 50 -12z"/>
<path d="M843 1930 c-13 -5 -23 -16 -23 -24 0 -12 10 -14 50 -9 46 5 50 4 59
-18 8 -23 6 -24 -36 -31 -25 -4 -53 -14 -64 -24 -23 -21 -25 -67 -3 -88 18
-19 85 -21 102 -4 9 9 12 9 12 0 0 -7 9 -12 21 -12 20 0 21 4 17 89 -2 70 -7
93 -22 110 -20 22 -72 27 -113 11z m92 -135 c0 -11 -12 -26 -27 -35 -25 -13
-29 -13 -43 1 -18 18 -11 46 13 52 34 10 57 2 57 -18z"/>
<path d="M1047 1933 c-4 -3 -7 -53 -7 -110 0 -96 1 -103 20 -103 18 0 20 7 20
68 0 74 21 112 60 112 13 0 20 7 20 20 0 25 -41 28 -64 4 -15 -14 -16 -14 -16
0 0 16 -21 22 -33 9z"/>
<path d="M1219 1909 c-23 -25 -29 -40 -29 -76 0 -49 21 -97 45 -107 9 -3 36
-6 60 -6 61 0 95 40 95 112 0 41 -5 54 -29 79 -42 42 -102 41 -142 -2z m115
-31 c23 -33 20 -75 -9 -103 -13 -14 -29 -25 -35 -25 -6 0 -22 11 -35 25 -46
45 -23 125 35 125 18 0 34 -8 44 -22z"/>
<path d="M1447 1933 c-4 -3 -7 -53 -7 -110 0 -96 1 -103 20 -103 18 0 20 7 20
73 0 80 15 107 59 107 29 0 41 -34 41 -116 0 -57 2 -64 20 -64 18 0 20 7 20
85 0 78 -2 88 -25 110 -28 29 -61 32 -93 9 -20 -14 -22 -14 -22 0 0 16 -21 22
-33 9z"/>
<path d="M2148 1499 c19 -20 14 -31 -9 -19 -11 7 -23 9 -26 7 -2 -3 4 -8 15
-11 11 -4 23 -14 27 -24 5 -13 8 -14 14 -3 12 18 2 48 -17 56 -14 5 -15 4 -4
-6z"/>
<path d="M2185 1471 c7 -23 -15 -43 -35 -31 -22 14 -34 12 -21 -3 8 -10 7 -17
-2 -27 -10 -12 -9 -12 4 -2 21 16 50 5 42 -16 -5 -12 -2 -14 13 -9 17 6 17 6
3 -5 -9 -7 -16 -16 -17 -21 -2 -23 -9 -29 -15 -13 -5 11 -3 15 5 10 7 -4 8 -3
4 5 -6 9 -11 9 -22 0 -12 -10 -12 -14 3 -29 10 -10 21 -16 24 -14 10 5 5 -30
-4 -37 -4 -3 1 -17 12 -30 16 -19 23 -21 29 -11 7 11 10 9 15 -7 5 -22 29 -30
25 -9 -2 6 6 13 17 15 l20 3 -20 -9 c-11 -5 -15 -10 -9 -10 6 -1 11 -8 11 -16
0 -11 -7 -14 -21 -10 -19 5 -19 5 -5 -7 14 -11 15 -17 4 -31 -7 -9 -21 -17
-33 -17 -11 0 -22 -7 -26 -15 -4 -13 -2 -14 14 -5 18 9 20 8 18 -15 -2 -20 -7
-25 -20 -22 -12 4 -16 1 -11 -6 4 -7 6 -20 5 -29 -2 -10 2 -18 8 -18 6 0 8 -4
5 -10 -3 -5 -1 -10 5 -10 6 0 8 -5 4 -11 -4 -7 -9 -8 -13 -1 -5 8 -28 9 -63 3
-5 0 -8 -11 -8 -22 0 -15 4 -19 13 -13 7 5 5 1 -6 -8 -14 -14 -16 -21 -8 -37
13 -22 5 -30 -33 -33 -14 -1 -26 -8 -26 -15 0 -7 -4 -13 -10 -13 -6 0 -9 -6
-8 -13 2 -6 -3 -11 -10 -9 -8 1 -11 -2 -8 -7 4 -5 0 -11 -6 -14 -7 -2 12 -3
44 -3 31 1 54 -2 52 -6 -3 -4 -38 -6 -79 -5 -53 2 -76 -1 -79 -10 -3 -7 -1
-13 5 -13 6 0 9 -6 6 -12 -2 -7 -12 -12 -22 -10 -14 3 -16 -1 -12 -17 3 -12 0
-24 -5 -28 -6 -3 -8 -2 -5 4 3 5 -9 17 -28 26 -19 9 -35 13 -35 8 0 -5 -6 -9
-12 -8 -7 0 -24 -1 -37 -1 -20 -2 -21 -4 -11 -17 8 -9 9 -15 2 -15 -6 0 -14 5
-17 10 -3 6 -16 10 -27 10 -12 0 -19 3 -15 6 10 10 -17 32 -31 26 -8 -3 -18 1
-22 9 -7 10 -11 8 -18 -10 -6 -16 -11 -20 -16 -13 -4 7 -12 9 -18 6 -7 -4 -8
-2 -4 4 4 7 4 12 -1 13 -4 0 -19 2 -33 5 -19 3 -22 2 -10 -6 13 -9 12 -12 -4
-25 -15 -12 -22 -12 -34 -3 -9 8 -10 14 -3 16 6 2 11 16 11 31 0 15 6 33 13
41 7 8 3 7 -12 -3 -13 -8 -30 -13 -37 -10 -8 3 -14 -1 -14 -10 0 -10 7 -13 20
-10 11 3 20 0 20 -6 0 -6 -4 -12 -10 -12 -5 -1 -16 -2 -22 -3 -7 0 -13 -7 -13
-13 0 -7 -3 -13 -7 -13 -5 0 -11 0 -15 0 -3 0 2 9 12 20 11 12 13 20 6 20 -7
0 -10 4 -7 9 4 5 -2 8 -11 6 -12 -1 -17 -10 -15 -26 1 -12 -1 -20 -4 -16 -4 3
-16 0 -27 -8 -15 -10 -25 -11 -39 -4 -11 6 -22 8 -26 5 -3 -3 0 -6 6 -6 7 0
12 -5 12 -10 0 -7 -6 -7 -19 0 -11 5 -29 10 -41 10 -16 0 -20 4 -16 15 4 13 2
13 -14 5 -26 -14 -25 -14 -28 22 -3 34 -21 64 -23 37 -1 -7 -1 -17 -1 -20 2
-14 -43 0 -46 14 -2 9 -9 17 -16 17 -20 0 -27 -12 -16 -25 8 -10 3 -12 -23
-11 -18 2 -40 7 -48 11 -11 7 -12 5 -4 -6 6 -8 2 -6 -8 5 -17 19 -20 19 -31 5
-9 -13 -15 -14 -29 -5 -13 8 -19 8 -25 -1 -5 -8 -13 -9 -22 -3 -13 8 -13 10 0
10 18 0 22 41 6 52 -17 12 -26 9 -26 -7 0 -9 6 -12 17 -8 14 5 13 2 -4 -16
-13 -14 -28 -21 -37 -18 -9 3 -18 2 -21 -3 -3 -4 1 -11 7 -13 10 -4 10 -6 0
-6 -8 -1 -10 -6 -6 -13 5 -8 2 -8 -10 1 -13 11 -16 11 -14 1 2 -7 -7 -13 -23
-14 -21 -1 -26 3 -24 16 3 11 -1 15 -11 11 -8 -3 -13 -12 -10 -19 3 -8 0 -11
-10 -7 -8 3 -13 12 -10 19 3 8 0 11 -8 8 -8 -3 -23 7 -35 22 -11 15 -21 22
-21 17 0 -5 -7 -10 -15 -10 -8 0 -12 4 -9 9 5 8 -1 10 -36 10 -41 0 -43 -2
-24 -23 10 -12 51 -46 89 -74 39 -29 84 -65 100 -80 80 -72 176 -117 395 -185
58 -18 129 -44 159 -57 30 -13 56 -21 59 -18 3 2 17 -2 31 -10 65 -35 192 -75
222 -70 17 3 28 2 25 -4 -3 -5 1 -11 9 -15 8 -3 15 0 15 7 1 8 5 7 13 -3 7 -8
19 -16 28 -16 9 -1 37 -4 64 -8 30 -5 45 -4 41 2 -6 11 11 11 29 1 16 -9 115
-9 115 0 0 5 19 8 42 8 23 0 44 5 46 11 2 6 10 8 18 5 8 -3 14 0 14 7 0 6 4 8
10 5 15 -10 110 40 175 92 69 56 146 148 174 209 53 111 54 212 5 400 -42 166
-81 254 -133 304 -14 14 -26 28 -26 32 0 3 -4 10 -8 15 -5 4 -7 2 -5 -6 2 -8
-8 -14 -27 -16 -16 -2 -24 -1 -17 2 6 2 12 9 12 15 0 6 -6 8 -14 5 -15 -6 -16
9 -1 33 8 13 7 13 -8 1 -9 -7 -17 -9 -17 -4 0 5 -7 18 -15 29 -8 10 -14 15
-13 9 2 -5 -1 -11 -7 -12 -5 -1 -9 4 -7 12 3 18 -25 27 -32 10 -3 -10 0 -12
12 -8 13 5 14 3 5 -7 -15 -17 -33 -4 -28 20 3 15 -2 20 -16 20 -15 0 -19 -5
-14 -19z m35 -42 c0 -5 4 -8 8 -5 5 3 9 -1 9 -9 0 -10 -5 -11 -17 -5 -10 5
-20 6 -24 2 -4 -3 -4 1 0 11 7 19 24 23 24 6z m65 -18 c-3 -6 -11 -11 -16 -11
-5 0 -4 6 3 14 14 16 24 13 13 -3z m-30 -31 c3 -5 1 -10 -6 -10 -7 0 -9 -8 -6
-21 4 -17 3 -19 -6 -10 -6 6 -18 11 -26 11 -14 0 -14 -2 -1 -11 12 -9 12 -10
1 -7 -21 6 -26 28 -7 28 10 0 13 6 10 15 -7 17 31 22 41 5z m70 -32 c14 -6 25
-19 25 -29 0 -16 -3 -15 -26 6 -15 14 -30 22 -35 20 -4 -3 -10 -1 -14 5 -8 13
18 13 50 -2z m-66 -52 c9 -11 6 -13 -15 -10 -15 1 -27 -3 -31 -12 -3 -8 -9
-12 -14 -9 -10 7 21 45 37 45 6 0 17 -6 23 -14z m141 0 c0 -2 -7 -6 -15 -10
-8 -3 -15 -1 -15 4 0 6 7 10 15 10 8 0 15 -2 15 -4z m-49 -22 c10 -12 8 -13
-12 -6 -13 5 -29 7 -36 5 -6 -2 -14 0 -17 5 -9 15 52 12 65 -4z m83 0 c3 -8 2
-12 -4 -9 -6 3 -10 10 -10 16 0 14 7 11 14 -7z m-82 -127 c-7 -8 -9 -17 -5
-20 3 -4 -2 -7 -13 -7 -16 0 -17 -2 -4 -10 12 -8 10 -10 -8 -10 -20 0 -22 4
-17 23 4 12 12 27 18 32 7 7 8 6 3 -2 -4 -7 -2 -13 4 -13 6 0 13 7 17 15 3 9
8 14 11 11 3 -3 0 -12 -6 -19z m-78 -25 c3 -5 -1 -9 -9 -9 -8 0 -12 4 -9 9 3
4 7 8 9 8 2 0 6 -4 9 -8z m174 -19 c-2 -11 2 -17 10 -15 8 1 11 -2 7 -8 -10
-16 -35 8 -28 26 7 20 14 18 11 -3z m-158 -7 c0 -2 -7 -6 -15 -10 -8 -3 -15
-1 -15 4 0 6 7 10 15 10 8 0 15 -2 15 -4z m15 -39 c0 -7 9 -11 18 -11 17 2 17
1 2 -16 -9 -10 -14 -24 -10 -29 3 -6 2 -11 -4 -11 -15 0 -23 18 -11 25 6 4 8
11 4 16 -3 5 -10 7 -15 4 -5 -4 -12 1 -16 10 -3 10 0 21 8 25 15 10 24 5 24
-13z m120 13 c-3 -5 -11 -10 -16 -10 -6 0 -7 5 -4 10 3 6 11 10 16 10 6 0 7
-4 4 -10z m-40 -160 c-3 -5 -2 -10 3 -10 17 0 1 -38 -18 -43 -16 -4 -17 -1 -9
21 12 30 19 42 25 42 3 0 2 -4 -1 -10z m-177 -45 c-3 -3 -9 2 -12 12 -6 14 -5
15 5 6 7 -7 10 -15 7 -18z m-58 0 c0 -8 -4 -15 -10 -15 -5 0 -10 7 -10 15 0 8
5 15 10 15 6 0 10 -7 10 -15z m280 -29 c0 -3 -4 -8 -10 -11 -5 -3 -10 -1 -10
4 0 6 5 11 10 11 6 0 10 -2 10 -4z m-90 -48 c0 -4 -9 -8 -20 -8 -10 0 -23 -8
-29 -17 -5 -10 -13 -15 -17 -11 -4 4 3 16 16 26 24 19 50 25 50 10z m-1093
-13 c8 -21 -3 -30 -20 -17 -8 7 -17 9 -21 5 -4 -4 -4 0 0 10 8 21 33 22 41 2z
m788 6 c3 -5 2 -12 -3 -15 -5 -3 -9 1 -9 9 0 17 3 19 12 6z m318 -31 c3 -13 1
-18 -6 -14 -8 5 -7 2 1 -7 16 -17 15 -29 -2 -29 -16 0 -24 25 -18 53 6 23 18
22 25 -3z m-96 -13 c0 -7 -9 -14 -20 -14 -19 -2 -19 -2 -1 12 11 8 19 15 20
15 0 0 1 -6 1 -13z m-717 -18 c0 -6 -4 -7 -10 -4 -5 3 -10 11 -10 16 0 6 5 7
10 4 6 -3 10 -11 10 -16z m798 -29 c12 0 22 -4 22 -10 0 -5 -7 -10 -15 -10 -8
0 -15 -5 -15 -11 0 -6 -6 -9 -13 -6 -7 2 -18 -6 -24 -20 -10 -21 -10 -24 4
-19 12 5 14 1 9 -19 -4 -16 -2 -25 5 -25 8 0 8 -5 -1 -15 -11 -13 -10 -14 4
-9 9 3 16 2 16 -4 0 -5 -9 -12 -20 -15 -15 -4 -22 1 -26 19 -4 14 -1 31 6 39
12 14 5 20 -22 16 -13 -1 -1 29 20 54 20 22 20 25 4 34 -9 5 -14 13 -10 17 5
4 4 12 0 19 -4 6 2 1 13 -12 12 -13 31 -23 43 -23z m-740 17 c4 -20 -14 -23
-21 -4 -4 10 -7 10 -18 0 -11 -11 -11 -13 1 -13 7 0 11 -3 7 -6 -13 -13 -27 7
-17 26 12 22 44 20 48 -3z m624 -22 c4 -20 2 -23 -8 -14 -7 6 -10 17 -7 25 7
20 10 18 15 -11z m206 -43 c-6 -7 -8 -16 -4 -19 4 -4 11 -1 15 6 5 8 11 9 15
3 3 -5 -1 -12 -9 -16 -8 -3 -15 -18 -15 -33 0 -22 -2 -25 -10 -13 -8 13 -10
13 -10 -1 0 -20 -27 -33 -36 -18 -3 5 -14 7 -25 4 -10 -4 -19 -2 -19 3 0 13
20 20 42 14 10 -2 15 -9 11 -16 -3 -6 -3 -8 2 -4 4 4 9 21 10 38 2 27 0 30
-19 24 -11 -4 -27 -11 -33 -16 -10 -8 -13 -5 -13 10 0 11 -4 22 -10 24 -5 2 2
8 15 15 14 6 25 7 25 2 0 -5 -4 -9 -10 -9 -5 0 -10 -4 -10 -10 0 -5 7 -10 15
-10 8 0 15 7 15 16 0 8 4 13 9 10 5 -4 12 0 14 6 3 8 6 5 6 -6 1 -15 4 -16 16
-6 14 12 14 15 0 30 -8 9 -15 20 -15 24 0 5 9 -2 19 -15 14 -18 16 -27 9 -37z
m-200 -30 c2 -7 -1 -12 -8 -12 -6 0 -8 5 -4 12 4 7 3 8 -5 4 -6 -4 -9 -12 -6
-17 4 -5 -1 -9 -9 -9 -9 0 -16 -5 -16 -10 0 -7 -6 -7 -19 0 -15 7 -22 7 -27
-2 -4 -7 -4 -10 1 -6 4 4 16 3 26 -2 12 -7 20 -7 24 0 5 8 11 7 21 -1 15 -12
9 -33 -7 -24 -5 4 -9 2 -9 -4 0 -5 5 -13 10 -16 6 -3 10 -1 10 5 0 6 5 8 12 4
7 -4 8 -3 4 4 -11 19 2 14 24 -8 11 -11 16 -20 10 -20 -5 0 -10 -5 -10 -11 0
-5 5 -7 12 -3 7 4 8 3 4 -4 -10 -17 -24 -15 -29 6 -3 12 -5 10 -6 -7 -1 -20 3
-23 25 -18 18 3 24 1 20 -9 -3 -9 1 -11 12 -7 9 3 6 -3 -8 -13 -14 -10 -28
-23 -32 -28 -4 -6 -8 -7 -8 -2 0 6 -6 2 -13 -9 -10 -12 -16 -14 -21 -7 -4 7
-1 12 6 12 9 0 9 3 -2 10 -22 14 -33 12 -27 -4 3 -8 3 -17 -1 -19 -4 -2 -2 -3
5 -1 18 4 24 -8 11 -25 -7 -9 0 -5 15 8 15 14 27 21 27 18 0 -4 0 -10 0 -14 0
-5 -5 -8 -10 -8 -6 0 -15 -6 -19 -14 -5 -8 -14 -10 -21 -6 -7 4 -16 1 -22 -6
-7 -12 -8 -11 -6 1 2 8 -2 15 -7 15 -5 0 -8 -7 -7 -15 3 -10 -1 -9 -11 4 -10
13 -16 15 -21 8 -4 -7 -19 -12 -33 -12 -23 0 -25 3 -19 30 3 19 2 29 -4 25
-17 -10 -34 6 -19 17 11 8 11 9 1 6 -8 -2 -14 -8 -14 -13 0 -16 -20 -35 -30
-29 -5 3 -4 13 4 22 11 13 11 14 -1 7 -11 -6 -13 -4 -7 11 5 10 11 27 13 36 3
10 9 16 13 13 5 -3 11 -1 14 4 4 5 1 13 -5 17 -8 5 -9 3 -4 -6 6 -9 4 -11 -5
-5 -10 6 -9 11 5 22 11 7 22 13 27 13 4 0 8 11 8 25 0 18 -5 25 -20 25 -19 0
-19 1 -2 18 15 16 53 25 49 12 -4 -11 10 -11 56 1 33 8 46 16 43 25 -4 10 1
11 16 5 12 -4 24 -13 26 -19z m-218 -26 c-5 -13 -6 -27 -3 -30 4 -3 1 -6 -6
-6 -8 0 -11 6 -7 16 4 11 2 15 -7 11 -8 -3 -14 1 -14 8 0 7 6 11 14 8 7 -3 13
0 13 6 0 6 4 11 10 11 6 0 6 -9 0 -24z m257 -9 c-3 -11 -36 -19 -49 -11 -15 9
1 22 27 22 14 0 24 -5 22 -11z m-287 -42 c7 -9 8 -15 2 -15 -5 0 -12 7 -16 15
-3 8 -4 15 -2 15 2 0 9 -7 16 -15z m60 0 c0 -8 -7 -15 -15 -15 -13 0 -14 3 -3
15 16 18 18 18 18 0z m273 -32 c-10 -3 -10 -10 -2 -25 10 -18 9 -18 -10 -8
-28 15 -27 40 2 39 12 0 16 -3 10 -6z m-329 -41 c3 -5 -1 -9 -9 -9 -8 0 -12 4
-9 9 3 4 7 8 9 8 2 0 6 -4 9 -8z m26 -105 c11 -5 9 -6 -4 -4 -11 1 -21 9 -23
17 -3 10 -2 11 4 4 4 -6 15 -14 23 -17z m40 -1 c0 -2 -8 -10 -17 -17 -16 -13
-17 -12 -4 4 13 16 21 21 21 13z"/>
<path d="M2086 562 c-2 -4 -1 -14 4 -22 5 -9 4 -20 -3 -29 -10 -12 -8 -13 13
-7 14 4 31 8 38 8 24 2 12 18 -14 18 -21 0 -24 4 -19 20 6 19 -9 29 -19 12z"/>
<path d="M2080 370 c-12 -7 -10 -9 7 -7 12 0 19 5 17 9 -6 10 -6 10 -24 -2z"/>
<path d="M2126 1378 c3 -5 10 -6 15 -3 13 9 11 12 -6 12 -8 0 -12 -4 -9 -9z"/>
<path d="M2131 1225 c2 -24 7 -43 13 -42 6 1 10 -3 9 -10 -3 -15 30 -10 35 7
3 7 -1 11 -9 8 -8 -3 -20 2 -28 10 -13 13 -12 16 5 30 18 14 18 14 0 8 -15 -5
-17 -4 -7 8 9 11 8 15 -4 20 -13 5 -16 -2 -14 -39z"/>
<path d="M2204 1194 c4 -9 1 -23 -5 -30 -9 -11 -8 -14 5 -14 11 0 14 5 10 12
-5 8 -2 9 9 5 10 -3 17 -2 17 3 0 6 -4 10 -10 10 -5 0 -10 7 -10 15 0 8 -5 15
-11 15 -6 0 -8 -7 -5 -16z"/>
<path d="M257 1193 c-9 -18 -1 -56 13 -64 8 -4 51 -24 95 -44 105 -47 245
-136 245 -154 0 -11 4 -10 14 4 8 11 11 25 9 32 -3 8 -2 13 3 12 54 -10 41 23
-20 49 -29 13 -113 57 -187 97 -127 71 -163 85 -172 68z m363 -203 c0 -5 -2
-10 -4 -10 -3 0 -8 5 -11 10 -3 6 -1 10 4 10 6 0 11 -4 11 -10z"/>
<path d="M2160 1070 c0 -5 5 -10 11 -10 5 0 7 5 4 10 -3 6 -8 10 -11 10 -2 0
-4 -4 -4 -10z"/>
<path d="M1865 1045 c-16 -14 -22 -22 -12 -19 12 5 16 2 12 -9 -4 -9 1 -16 14
-20 15 -4 21 0 21 12 0 9 7 27 16 39 14 20 14 22 -3 22 -10 0 -31 -11 -48 -25z"/>
<path d="M1390 890 c0 -5 5 -10 11 -10 5 0 7 5 4 10 -3 6 -8 10 -11 10 -2 0
-4 -4 -4 -10z"/>
<path d="M827 863 c-13 -13 -7 -31 12 -36 12 -3 22 1 25 10 3 8 1 11 -4 8 -6
-3 -10 1 -10 9 0 17 -12 21 -23 9z"/>
<path d="M1095 850 c-3 -5 -1 -10 4 -10 6 0 11 5 11 10 0 6 -2 10 -4 10 -3 0
-8 -4 -11 -10z"/>
<path d="M1475 850 c3 -5 8 -10 11 -10 2 0 4 5 4 10 0 6 -5 10 -11 10 -5 0 -7
-4 -4 -10z"/>
<path d="M1540 840 c0 -5 5 -10 11 -10 5 0 7 5 4 10 -3 6 -8 10 -11 10 -2 0
-4 -4 -4 -10z"/>
<path d="M1326 811 c-4 -7 -5 -15 -2 -18 9 -9 19 4 14 18 -4 11 -6 11 -12 0z"/>
<path d="M1420 812 c0 -7 -4 -10 -10 -7 -5 3 -10 2 -10 -4 0 -5 5 -13 10 -16
6 -4 7 -12 4 -18 -4 -7 1 -5 11 4 13 13 15 21 6 35 -6 11 -11 14 -11 6z"/>
</g>
</svg>
